<?xml version="1.0" encoding="UTF-8" standalone="no"?>
<!-- Uploaded to: SVG Repo, www.svgrepo.com, Generator: SVG Repo Mixer Tools -->

<svg
   width="512"
   height="512"
   viewBox="0 -28.5 163.84 163.84"
   version="1.1"
   preserveAspectRatio="xMidYMid"
   id="svg1"
   xml:space="preserve"
   xmlns="http://www.w3.org/2000/svg"
   xmlns:svg="http://www.w3.org/2000/svg"><defs
     id="defs1" /><path
     d="M 138.78804,0.62776778 C 128.18239,-4.3343422 116.84232,-7.9406122 104.98659,-9.9940525 c -1.45602,2.6324403 -3.15709,6.1731103 -4.32989,8.9897203 -12.602952,-1.89532 -25.090002,-1.89532 -37.461182,0 -1.17258,-2.81661 -2.91227,-6.35728 -4.38132,-8.9897203 -11.86853,2.0534403 -23.22164,5.6729603 -33.82728,10.64810028 C 3.5952209,32.979718 -2.2037191,64.502458 0.69576093,95.577595 14.88385,106.17292 28.633828,112.60928 42.151758,116.82103 c 3.33765,-4.59356 6.31438,-9.47663 8.87877,-14.62293 -4.88395,-1.8558 -9.56175,-4.145954 -13.98171,-6.804655 1.1726,-0.868719 2.31959,-1.776979 3.42772,-2.7115 26.95861,12.609225 56.24981,12.609225 82.886342,0 1.12117,0.934521 2.26792,1.842781 3.42773,2.7115 -4.43299,2.67173 -9.12358,4.961885 -14.00756,6.817905 2.56439,5.13304 5.52832,10.02935 8.87878,14.6227 13.53097,-4.21177 27.2937,-10.64787 41.48181,-21.256455 3.40211,-36.024007 -5.81176,-67.257257 -24.3556,-94.94982722 z M 54.703268,76.466666 c -8.09269,0 -14.72937,-7.555019 -14.72937,-16.755178 0,-9.20017 6.49496,-16.76822 14.72937,-16.76822 8.23465,0 14.8711,7.5548 14.72938,16.76822 0.0133,9.200159 -6.49473,16.755178 -14.72938,16.755178 z m 54.432872,0 c -8.09269,0 -14.729372,-7.555019 -14.729372,-16.755178 0,-9.20017 6.494742,-16.76822 14.729372,-16.76822 8.23443,0 14.8711,7.5548 14.72938,16.76822 0,9.200159 -6.49495,16.755178 -14.72938,16.755178 z"
     fill="#5865f2"
     fill-rule="nonzero"
     id="path1"
     style="display:inline;fill:#000000;stroke-width:1" /><path
     d="m 131.08873,-28.50001 h -28.20317 l -3.009135,2.98947 -14.34744,27.38699 -4.18917,2.41908 h -48.58854 v 40.92805 h 25.9611 l 2.70429,2.70428 -28.66539,54.71496 v 32.69719 l 28.22286,-0.01 3.01896,-2.99929 14.37693,-27.39681 4.10067,-2.36991 H 131.08872 V 61.65578 h -26.03976 l -2.63544,-2.63544 28.6752,-54.74446"
     fill="#00e59b"
     id="path1-3"
     style="display:none;fill:#000000;stroke-width:4.80164" /><path
     d="M 81.923286,-28.5 C 36.685217,-28.5 0,8.172047 0,53.416695 c 0,36.19836 23.474329,66.903145 56.021267,77.732385 4.092219,0.75661 5.598833,-1.77636 5.598833,-3.94089 0,-1.954 -0.079,-8.40813 -0.111854,-15.25041 -22.790085,4.95407 -27.59943,-9.66474 -27.59943,-9.66474 -3.723784,-9.467368 -9.098919,-11.98718 -9.098919,-11.98718 -7.434419,-5.085664 0.55921,-4.98039 0.55921,-4.98039 8.223918,0.578961 12.559555,8.441026 12.559555,8.441026 7.309415,12.526644 19.164994,8.901544 23.836183,6.809394 0.736856,-5.2962 2.855333,-8.90815 5.204089,-10.954264 -18.197869,-2.072415 -37.323401,-9.09892 -37.323401,-40.487936 0,-8.941034 3.197465,-16.250448 8.441036,-21.987436 -0.848711,-2.059275 -3.651422,-10.388446 0.796069,-21.6716444 0,0 6.881779,-2.2040098 22.533515,8.3949534 6.533067,-1.815825 13.53984,-2.723748 20.507133,-2.756639 6.960712,0.0329 13.974065,0.940814 20.520294,2.756639 15.63858,-10.5989632 22.50719,-8.3949534 22.50719,-8.3949534 4.46064,11.2831984 1.65136,19.6189604 0.80265,21.6782144 5.25015,5.736998 8.42787,13.046413 8.42787,21.987446 0,31.461389 -19.165,38.39579 -37.408926,40.422163 2.940876,2.539542 5.559366,7.526513 5.559366,15.171447 0,10.96083 -0.0921,19.78345 -0.0921,22.48088 0,2.1777 1.47373,4.73698 5.62515,3.92775 C 140.39857,120.30011 163.84,89.601905 163.84,53.416695 163.84,8.172047 127.16136,-28.5 81.923287,-28.5"
     fill="#5c6bc0"
     id="path1-8"
     style="display:none;fill:#000000;stroke-width:0.320474" /><path
     class="st0"
     d="M 81.919995,-28.5 C 36.675335,-28.5 5.0000001e-6,8.17534 5.0000001e-6,53.42 5.0000001e-6,98.66466 36.675335,135.34 81.919995,135.34 127.16466,135.34 163.84,98.66466 163.84,53.42 163.84,8.18094 127.16466,-28.4944 81.919995,-28.5 Z M 119.48973,89.64815 c -1.47015,2.41485 -4.61726,3.16948 -7.02092,1.69933 C 93.233965,79.59192 69.018505,76.93672 40.504425,83.44896 c -2.75023,0.63165 -5.48928,-1.09003 -6.11536,-3.84027 -0.63165,-2.75023 1.08445,-5.48928 3.84026,-6.11535 31.20284,-7.12713 57.97286,-4.05827 79.566655,9.13389 2.40367,1.48133 3.16948,4.61726 1.69375,7.02092 z m 10.0227,-22.29812 c -1.85027,3.00738 -5.78556,3.94647 -8.78733,2.10181 C 98.712065,55.91869 65.139125,52.00018 39.095765,59.90428 c -3.37629,1.02296 -6.94265,-0.88319 -7.97119,-4.25391 -1.01737,-3.37631 0.88879,-6.93706 4.2595,-7.9656 29.74945,-9.0277 66.737825,-4.6564 92.020955,10.88353 3.00737,1.85025 3.95765,5.77996 2.1074,8.78173 z M 130.37326,44.1184 C 103.96658,28.43873 60.410065,26.99654 35.199615,34.64353 c -4.0471,1.22977 -8.32895,-1.05649 -9.55315,-5.10358 -1.22418,-4.0471 1.05649,-8.32895 5.10918,-9.55873 28.93891,-8.78173 77.040015,-7.088 107.437895,10.9562 3.63903,2.1633 4.83526,6.86441 2.67757,10.49783 -2.15211,3.64462 -6.8644,4.84645 -10.49785,2.68315 z"
     id="path1-39"
     style="display:none;fill:#000000;stroke-width:0.32" /><path
     d="M 81.7801,-28.5 C 39.13445,-28.5 4.19944,4.68256 0.88194,46.84895 l 43.50985,18.1538 A 22.672933,22.672933 0 0 1 57.3237,60.97236 c 0.43178,0 0.85849,0.0121 1.27887,0.0355 L 77.95421,32.7015 v -0.39632 c 0,-17.03255 13.73217,-30.89324 30.61277,-30.89324 16.87998,0 30.61213,13.86069 30.61213,30.89324 0,17.03193 -13.73215,30.89829 -30.61213,30.89829 -0.23425,0 -0.46217,-0.006 -0.69515,-0.0114 L 80.27266,83.05716 c 0.0177,0.36847 0.0291,0.7363 0.0291,1.09844 0,12.79136 -10.30894,23.19462 -22.9781,23.19462 -11.12121,0 -20.42603,-8.0139 -22.52858,-18.62103 L 3.67392,75.74408 c 9.63784,34.38611 40.94513,59.59592 78.10615,59.59592 44.83558,0 81.17799,-36.68113 81.17799,-81.92 0,-45.24394 -36.34241,-81.92 -81.17799,-81.92 z M 51.7536,95.79975 41.78275,91.64148 c 1.76447,3.71445 4.82493,6.82175 8.88443,8.52799 8.773,3.69103 18.88946,-0.50839 22.5463,-9.3694 A 17.445345,17.445345 0 0 0 73.24258,77.4826 C 71.49012,73.18379 68.17832,69.83084 63.93207,68.04357 59.70922,66.27403 55.18818,66.33798 51.21605,67.85111 l 10.30386,4.29882 c 6.47166,2.72237 9.5321,10.22155 6.83378,16.75208 -2.69261,6.5299 -10.12849,9.62011 -16.60013,6.89774 z m 77.21218,-63.4946 c 0,-11.3485 -9.15287,-20.58874 -20.39689,-20.58874 -11.24974,0 -20.40261,9.24024 -20.40261,20.58874 0,11.34912 9.15287,20.58367 20.40261,20.58367 11.24402,0 20.39689,-9.23455 20.39689,-20.58367 z m -35.68841,-0.0348 c 0,-8.53939 6.86291,-15.46055 15.32127,-15.46055 8.46341,0 15.32632,6.92116 15.32632,15.46055 0,8.53939 -6.86291,15.46118 -15.32696,15.46118 -8.45772,0 -15.32125,-6.92179 -15.32125,-15.46055 z"
     fill="#1a1918"
     id="path1-4"
     style="display:none;fill:#000000;stroke-width:3.08875" /><path
     id="path6"
     style="display:none;fill:#000000;stroke-width:60.4724;stroke-linejoin:round;stroke-miterlimit:50;paint-order:fill markers stroke"
     d="M 85.892875,-28.49985 V 83.725115 h -0.0143 a 23.630846,23.630846 0 0 1 -23.61565,23.476305 23.630846,23.630846 0 0 1 -23.63074,-23.630745 23.630846,23.630846 0 0 1 23.63074,-23.63091 23.630846,23.630846 0 0 1 6.91387,1.04244 v -28.70468 a 51.769308,51.769308 0 0 0 -6.91387,-0.4762 51.769308,51.769308 0 0 0 -51.76932,51.76935 A 51.769308,51.769308 0 0 0 62.262925,135.34 51.769308,51.769308 0 0 0 114.02846,83.725115 h 0.003 v -0.15458 -57.32637 c 11.38638,8.17699 25.11526,12.67107 39.31494,12.6711 v -28.10032 c -10.42694,0 -20.42691,-4.14207 -27.79988,-11.51504 C 118.17355,-8.073065 114.03149,-18.073025 114.03151,-28.5 H 85.931325 Z" /><path
     id="rect1"
     style="display:none;opacity:1;fill:#000000;stroke-width:60.4721;stroke-linejoin:round;stroke-miterlimit:50;paint-order:fill markers stroke"
     d="M 34.623443,-28.5 -3.0859434e-5,100.71654 129.21652,135.34 163.84,6.1234751 Z m 33.724642,58.412758 37.079155,9.935341 -9.935343,37.079135 -37.07914,-9.935331 z" /><path
     id="ID0.1519448710605502"
     d="m 103.78886,-28.495802 c -1.6005,-0.0287 -3.19811,0.0897 -4.772681,0.35953 -2.51932,0.39989 -4.79845,1.03973 -6.93786,1.95948 -1.67955,0.6998 -3.2591,1.53981 -4.7387,2.53953 -3.31912,-0.71979 -6.79837,-1.09958 -10.43738,-1.09958 -7.87787,0 -15.45553,1.79971 -22.51363,5.31876 -4.31883,2.17942 -10.25739,6.59792 -14.19633,15.4355398 -0.7398,1.59956 -1.27945,3.31891002 -2.95899,8.83742 -4.01891,12.8365302 -4.83877,17.9954502 -4.83877,22.1343302 v 10.19708 c -2e-5,4.17887 0.71946,8.25807 2.09908,12.11702 -4.01891,4.29884 -6.39798,9.6773 -7.15778,15.03585 -0.14002,1.01972 -0.21991,2.0595 -0.21991,3.09921 0,2.27939 0.35964,4.31845 0.83951,6.07796 -0.0999,1.63957 -0.1598,3.13962 -0.17978,4.47926 -0.31989,1.57956 -0.47999,3.15913 -0.47999,4.7387 v 9.67694 c 2e-5,1.59956 0.18026,3.17912 0.52016,4.7387 -0.02,0.61983 -0.0803,1.45984 -0.14017,2.53954 -0.14001,2.519322 -0.20015,4.338582 -0.20015,5.738212 0,20.55444 13.49691,29.91232 26.03352,29.91232 6.09835,0 12.27629,-2.05927 18.87451,-6.27812 2.5193,-1.61955 4.65894,-3.699 6.2985,-6.09834 1.25966,-0.0401 2.51947,-0.14032 3.79912,-0.30023 28.152371,-3.55902 45.707611,-14.43625 52.165881,-32.331402 2.07943,-5.5985 2.53923,-12.21649 1.63949,-23.43344 -0.0999,-1.29965 -0.31986,-2.57962 -0.65977,-3.83928 -0.87975,-3.3391 -1.87937,-6.07816 -3.05906,-8.45751 -1.25964,-2.99919 -3.09947,-6.45818 -5.79875,-9.91723 0.08,-0.25993 0.15973,-0.54022 0.2397,-0.84013 0.35989,-1.31964 0.58016,-2.67918 0.68012,-4.0388 0.23993,-3.55904 0.3002,-6.57799 0.14017,-9.27725 0.61984,-6.97812 1.07929,-12.25665 1.39918,-15.79569 0.0201,-0.1199 0.0201,-0.24017 0.0401,-0.36014 0.35991,-4.8786802 0.60009,-8.6178702 0.74006,-11.4171202 0.85976,-15.8756898 -6.13851,-23.5932598 -12.23686,-27.3122298 -4.34883,-2.6393 -9.18108,-4.05267 -13.98261,-4.13889 z m -0.30948,21.9891598 c 0.91239,0.0223 1.87509,0.34109 2.88732,0.95441 1.34563,0.82178 1.90306,3.28545 1.66915,7.38635 -0.11806,2.57929 -0.35171,6.21443 -0.70361,10.9031602 -0.35191,3.87094 -0.87809,9.79119 -1.5839,17.76504 0.23394,1.87549 0.23394,4.45673 0,7.73783 -0.58784,2.22741 -2.34693,3.34076 -5.27614,3.34076 -1.525581,0 -2.989471,-0.40954 -4.397101,-1.22931 -0.7038,-2.2254 -1.05386,-3.16696 -1.05386,-2.81505 0.23193,-3.16516 -0.4118,-7.38653 -1.93539,-12.6631 -1.29166,-2.69526 -3.07709,-6.53378 -5.36446,-11.51842 -2.2874,-4.9826502 -5.30636,-7.6521902 -9.05735,-8.0041002 -4.69072,-0.35191 -7.73806,1.23154 -9.14567,4.7485902 -0.46787,1.52558 -1.11577,3.75538 -1.93353,6.68459 -1.40763,4.33884 -2.2871,8.5015 -2.63901,12.48642 -0.1179,1.29165 -0.23615,1.81922 -0.3521,1.58328 0.35189,2.34738 0.7619,4.69073 1.23176,7.03609 0.58585,2.93121 2.02338,5.16115 4.30876,6.68274 2.28739,1.52557 6.65208,2.4613 13.10232,2.81319 15.82771,0.94174 25.616961,6.45199 29.369951,16.53326 0.58383,0.93975 1.16963,2.52133 1.75747,4.74673 0.58583,7.27204 0.46629,11.95889 -0.35149,14.07032 -3.40309,9.6154 -14.835861,15.65197 -34.294601,18.115302 -6.56822,0.82178 -13.13282,-2.285642 -19.70103,-9.321732 0,1.05571 0.2342,4.22108 0.70608,9.499652 0.3519,3.86894 0.29181,7.03398 -0.17606,9.49531 -2.93321,1.87549 -5.27657,2.81506 -7.03608,2.81506 -2.69928,0 -4.04499,-2.63718 -4.04499,-7.91576 0,-0.93774 0.0582,-2.43151 0.17606,-4.48295 0.11591,-2.049452 0.17606,-3.486982 0.17606,-4.308762 0,-1.99347 -0.17628,-3.39927 -0.52817,-4.22103 v -9.67324 c 0,-0.23394 0.0582,-0.49803 0.17605,-0.79193 0.11591,-0.29193 0.23415,-0.5554 0.35212,-0.79134 -0.11791,-1.63955 -0.0605,-4.16133 0.17543,-7.56241 0.23396,-2.11142 0.23396,-3.4565 0,-4.04434 -0.58784,-1.1697 -0.87719,-1.87367 -0.87719,-2.1096 0.46589,-3.2831 2.87286,-4.92463 7.20968,-4.92465 2.81322,0 4.51285,0.9978 5.10069,2.98926 0,1.8755 0.23374,4.63238 0.7036,8.26539 0.70582,4.22087 2.93162,8.44362 6.68461,12.66249 4.1029,4.80871 8.02967,7.0365 11.78467,6.6846 4.22085,-0.46587 8.44163,-1.46367 12.66249,-2.98926 5.8624,-2.11142 9.379821,-4.57311 10.553511,-7.38635 0.81776,-2.11142 1.22929,-4.33661 1.22931,-6.68396 0,-7.15008 -2.63733,-12.48682 -7.913901,-16.00387 -2.34738,-1.52358 -6.68418,-2.75498 -13.01646,-3.69473 -3.63502,-0.46586 -5.86433,-0.70359 -6.68212,-0.70359 -5.62848,0.1179 -10.87724,-1.69983 -15.74192,-5.45282 -4.8667,-3.75097 -7.29803,-8.09177 -7.29803,-13.01645 v -10.19955 c 0,-2.22538 1.2901,-7.44396 3.8714,-15.65174 1.16968,-3.8709502 1.81543,-5.9204802 1.93539,-6.1564102 1.05371,-2.46134 2.40095,-4.10287 4.0425,-4.92464998 3.98492,-1.99146002 8.20569,-2.98864002 12.66249,-2.98864002 8.67566,0 15.06613,3.51696002 19.17101,10.55105 0.35191,0.35191 0.93818,0.87946 1.75996,1.58327 0.11591,-1.63955 0.35171,-4.1607 0.70362,-7.56178 -0.11806,-1.52359998 -0.23617,-2.98947 -0.35212,-4.39709 0,-1.63956 0.81814,-2.75292 2.461701,-3.34075 0.46788,-0.23395 1.11361,-0.41021 1.93539,-0.52818 0.29292,-0.0585 0.59159,-0.084 0.89573,-0.0766 z"
     style="display:none;fill:#000000;stroke-width:0.999999" /></svg>
